<?xml version="1.0" encoding="UTF-8" standalone="no"?>
<svg
   xmlns:dc="http://purl.org/dc/elements/1.1/"
   xmlns:cc="http://creativecommons.org/ns#"
   xmlns:rdf="http://www.w3.org/1999/02/22-rdf-syntax-ns#"
   xmlns:svg="http://www.w3.org/2000/svg"
   xmlns="http://www.w3.org/2000/svg"
   viewBox="0 0 1211.8 623.79999"
   height="623.79999"
   width="1211.8"
   xml:space="preserve"
   id="svg2"
   version="1.1"><metadata
     id="metadata8"><rdf:RDF><cc:Work
         rdf:about=""><dc:format>image/svg+xml</dc:format><dc:type
           rdf:resource="http://purl.org/dc/dcmitype/StillImage" /></cc:Work></rdf:RDF></metadata><defs
     id="defs6"><clipPath
       id="clipPath14"
       clipPathUnits="userSpaceOnUse"><path
         id="path12"
         d="M 0,0 H 960 V 540 H 0 Z" /></clipPath><clipPath
       id="clipPath22"
       clipPathUnits="userSpaceOnUse"><path
         style="clip-rule:evenodd"
         id="path20"
         d="M 0,1.2207e-4 H 960 V 540.00012 H 0 Z" /></clipPath><clipPath
       id="clipPath44"
       clipPathUnits="userSpaceOnUse"><path
         style="clip-rule:evenodd"
         id="path42"
         d="M 1.4305e-5,0 H 960.00001 V 540 H 1.4305e-5 Z" /></clipPath><clipPath
       id="clipPath56"
       clipPathUnits="userSpaceOnUse"><path
         style="clip-rule:evenodd"
         id="path54"
         d="M -3.0518e-5,1.8311e-4 H 959.99997 V 540.00018 H -3.0518e-5 Z" /></clipPath><clipPath
       id="clipPath66"
       clipPathUnits="userSpaceOnUse"><path
         id="path64"
         d="M 0,0 H 111.84 V 111.85 H 0 Z" /></clipPath><clipPath
       id="clipPath76"
       clipPathUnits="userSpaceOnUse"><path
         style="clip-rule:evenodd"
         id="path74"
         d="M 0,0.013901 H 111.84 V 111.8539 H 0 Z" /></clipPath><clipPath
       id="clipPath88"
       clipPathUnits="userSpaceOnUse"><path
         style="clip-rule:evenodd"
         id="path86"
         d="M 1.4305e-5,0 H 960.00001 V 540 H 1.4305e-5 Z" /></clipPath><clipPath
       id="clipPath102"
       clipPathUnits="userSpaceOnUse"><path
         style="clip-rule:evenodd"
         id="path100"
         d="M 1.4305e-5,0 H 960.00001 V 540 H 1.4305e-5 Z" /></clipPath><clipPath
       id="clipPath114"
       clipPathUnits="userSpaceOnUse"><path
         style="clip-rule:evenodd"
         id="path112"
         d="M 1.4305e-5,0 H 960.00001 V 540 H 1.4305e-5 Z" /></clipPath><clipPath
       id="clipPath126"
       clipPathUnits="userSpaceOnUse"><path
         style="clip-rule:evenodd"
         id="path124"
         d="M -6.1035e-5,1.8311e-4 H 959.99994 V 540.00018 H -6.1035e-5 Z" /></clipPath><clipPath
       id="clipPath136"
       clipPathUnits="userSpaceOnUse"><path
         id="path134"
         d="M 0,0 H 111.84 V 111.85 H 0 Z" /></clipPath><clipPath
       id="clipPath146"
       clipPathUnits="userSpaceOnUse"><path
         style="clip-rule:evenodd"
         id="path144"
         d="M 0,0.013901 H 111.84 V 111.8539 H 0 Z" /></clipPath><clipPath
       id="clipPath158"
       clipPathUnits="userSpaceOnUse"><path
         style="clip-rule:evenodd"
         id="path156"
         d="M 1.4305e-5,0 H 960.00001 V 540 H 1.4305e-5 Z" /></clipPath><clipPath
       id="clipPath170"
       clipPathUnits="userSpaceOnUse"><path
         style="clip-rule:evenodd"
         id="path168"
         d="M -6.1035e-5,1.2207e-4 H 959.99994 V 540.00012 H -6.1035e-5 Z" /></clipPath><clipPath
       id="clipPath180"
       clipPathUnits="userSpaceOnUse"><path
         id="path178"
         d="M 0,0 H 111.84 V 111.85 H 0 Z" /></clipPath><clipPath
       id="clipPath190"
       clipPathUnits="userSpaceOnUse"><path
         style="clip-rule:evenodd"
         id="path188"
         d="M 0,0.013901 H 111.84 V 111.8539 H 0 Z" /></clipPath><clipPath
       id="clipPath202"
       clipPathUnits="userSpaceOnUse"><path
         style="clip-rule:evenodd"
         id="path200"
         d="M 1.4305e-5,0 H 960.00001 V 540 H 1.4305e-5 Z" /></clipPath><clipPath
       id="clipPath214"
       clipPathUnits="userSpaceOnUse"><path
         style="clip-rule:evenodd"
         id="path212"
         d="M 1.4305e-5,0 H 960.00001 V 540 H 1.4305e-5 Z" /></clipPath><clipPath
       id="clipPath226"
       clipPathUnits="userSpaceOnUse"><path
         style="clip-rule:evenodd"
         id="path224"
         d="M 1.4305e-5,0 H 960.00001 V 540 H 1.4305e-5 Z" /></clipPath><clipPath
       id="clipPath238"
       clipPathUnits="userSpaceOnUse"><path
         style="clip-rule:evenodd"
         id="path236"
         d="M 1.4305e-5,0 H 960.00001 V 540 H 1.4305e-5 Z" /></clipPath><clipPath
       id="clipPath250"
       clipPathUnits="userSpaceOnUse"><path
         style="clip-rule:evenodd"
         id="path248"
         d="M 1.4305e-5,0 H 960.00001 V 540 H 1.4305e-5 Z" /></clipPath><clipPath
       id="clipPath262"
       clipPathUnits="userSpaceOnUse"><path
         style="clip-rule:evenodd"
         id="path260"
         d="M 1.4305e-5,0 H 960.00001 V 540 H 1.4305e-5 Z" /></clipPath><clipPath
       id="clipPath274"
       clipPathUnits="userSpaceOnUse"><path
         style="clip-rule:evenodd"
         id="path272"
         d="M 1.4305e-5,0 H 960.00001 V 540 H 1.4305e-5 Z" /></clipPath><clipPath
       id="clipPath296"
       clipPathUnits="userSpaceOnUse"><path
         style="clip-rule:evenodd"
         id="path294"
         d="M 0,1.2207e-4 H 960 V 540.00012 H 0 Z" /></clipPath><clipPath
       id="clipPath306"
       clipPathUnits="userSpaceOnUse"><path
         id="path304"
         d="M 0,0 H 57.973 V 57.958 H 0 Z" /></clipPath><clipPath
       id="clipPath316"
       clipPathUnits="userSpaceOnUse"><path
         style="clip-rule:evenodd"
         id="path314"
         d="M 0,-0.0016098 H 57.96 V 57.95839 H 0 Z" /></clipPath><clipPath
       id="clipPath326"
       clipPathUnits="userSpaceOnUse"><path
         style="clip-rule:evenodd"
         id="path324"
         d="M 0,1.2207e-4 H 960 V 540.00012 H 0 Z" /></clipPath><clipPath
       id="clipPath336"
       clipPathUnits="userSpaceOnUse"><path
         id="path334"
         d="M 0,0 H 57.973 V 57.958 H 0 Z" /></clipPath><clipPath
       id="clipPath346"
       clipPathUnits="userSpaceOnUse"><path
         style="clip-rule:evenodd"
         id="path344"
         d="M 0,-0.0016098 H 57.96 V 57.95839 H 0 Z" /></clipPath><clipPath
       id="clipPath356"
       clipPathUnits="userSpaceOnUse"><path
         style="clip-rule:evenodd"
         id="path354"
         d="M 0,1.2207e-4 H 960 V 540.00012 H 0 Z" /></clipPath><clipPath
       id="clipPath366"
       clipPathUnits="userSpaceOnUse"><path
         id="path364"
         d="M 0,0 H 57.973 V 57.958 H 0 Z" /></clipPath><clipPath
       id="clipPath376"
       clipPathUnits="userSpaceOnUse"><path
         style="clip-rule:evenodd"
         id="path374"
         d="M 0,-0.0016098 H 57.96 V 57.95839 H 0 Z" /></clipPath><clipPath
       id="clipPath386"
       clipPathUnits="userSpaceOnUse"><path
         style="clip-rule:evenodd"
         id="path384"
         d="M -6.1035e-5,1.2207e-4 H 959.99994 V 540.00012 H -6.1035e-5 Z" /></clipPath><clipPath
       id="clipPath396"
       clipPathUnits="userSpaceOnUse"><path
         id="path394"
         d="M 0,0 H 57.973 V 57.958 H 0 Z" /></clipPath><clipPath
       id="clipPath406"
       clipPathUnits="userSpaceOnUse"><path
         style="clip-rule:evenodd"
         id="path404"
         d="M 0,-0.0016098 H 57.96 V 57.95839 H 0 Z" /></clipPath><clipPath
       id="clipPath416"
       clipPathUnits="userSpaceOnUse"><path
         style="clip-rule:evenodd"
         id="path414"
         d="M 0,1.8311e-4 H 960 V 540.00018 H 0 Z" /></clipPath><clipPath
       id="clipPath426"
       clipPathUnits="userSpaceOnUse"><path
         id="path424"
         d="M 0,0 H 61.426 V 31.691 H 0 Z" /></clipPath><clipPath
       id="clipPath434"
       clipPathUnits="userSpaceOnUse"><path
         style="clip-rule:evenodd"
         id="path432"
         d="m 0,0.011427 h 61.44 v 31.68 H 0 Z" /></clipPath><clipPath
       id="clipPath470"
       clipPathUnits="userSpaceOnUse"><path
         style="clip-rule:evenodd"
         id="path468"
         d="M 1.4305e-5,0 H 960.00001 V 540 H 1.4305e-5 Z" /></clipPath><clipPath
       id="clipPath482"
       clipPathUnits="userSpaceOnUse"><path
         style="clip-rule:evenodd"
         id="path480"
         d="M 1.4305e-5,0 H 960.00001 V 540 H 1.4305e-5 Z" /></clipPath><clipPath
       id="clipPath496"
       clipPathUnits="userSpaceOnUse"><path
         style="clip-rule:evenodd"
         id="path494"
         d="M 1.2207e-4,540 H 960 V 1.8311e-4 H 1.8311e-4" /></clipPath><clipPath
       id="clipPath514"
       clipPathUnits="userSpaceOnUse"><path
         style="clip-rule:evenodd"
         id="path512"
         d="M 1.4305e-5,0 H 960.00001 V 540 H 1.4305e-5 Z" /></clipPath><clipPath
       id="clipPath526"
       clipPathUnits="userSpaceOnUse"><path
         style="clip-rule:evenodd"
         id="path524"
         d="M 1.4305e-5,0 H 960.00001 V 540 H 1.4305e-5 Z" /></clipPath><clipPath
       id="clipPath540"
       clipPathUnits="userSpaceOnUse"><path
         style="clip-rule:evenodd"
         id="path538"
         d="M 1.4305e-5,0 H 960.00001 V 540 H 1.4305e-5 Z" /></clipPath><clipPath
       id="clipPath552"
       clipPathUnits="userSpaceOnUse"><path
         style="clip-rule:evenodd"
         id="path550"
         d="M 0,2.4414e-4 H 960 V 540.00024 H 0 Z" /></clipPath><clipPath
       id="clipPath562"
       clipPathUnits="userSpaceOnUse"><path
         id="path560"
         d="M 0,0 H 57.011 V 56.994 H 0 Z" /></clipPath><clipPath
       id="clipPath570"
       clipPathUnits="userSpaceOnUse"><path
         style="clip-rule:evenodd"
         id="path568"
         d="M 0,-0.0060539 H 57 V 56.993946 H 0 Z" /></clipPath><clipPath
       id="clipPath580"
       clipPathUnits="userSpaceOnUse"><path
         style="clip-rule:evenodd"
         id="path578"
         d="M 6.1035e-5,0 H 960.00006 V 540 H 6.1035e-5 Z" /></clipPath><clipPath
       id="clipPath590"
       clipPathUnits="userSpaceOnUse"><path
         id="path588"
         d="M 0,0 H 57.011 V 56.994 H 0 Z" /></clipPath><clipPath
       id="clipPath598"
       clipPathUnits="userSpaceOnUse"><path
         style="clip-rule:evenodd"
         id="path596"
         d="M 0,-0.0060539 H 57 V 56.993946 H 0 Z" /></clipPath></defs><g
     clip-path="url(#clipPath14)"
     transform="matrix(1.3333333,0,0,-1.3333333,-48,660.45)"
     id="g10"><g
       id="g16"><g
         clip-path="url(#clipPath22)"
         id="g18"><path
           id="path24"
           style="fill:#ffffff;fill-opacity:1;fill-rule:evenodd;stroke:none"
           d="M 0,6.1035e-5 H 960 V 540.00006 H 0 Z" /></g></g><path
       id="path26"
       style="fill:#fff2cc;fill-opacity:1;fill-rule:evenodd;stroke:none"
       d="m 498.72,452.22 c 0,6.2 5.02,11.22 11.22,11.22 h 358.8 c 6.2,0 11.22,-5.02 11.22,-11.22 v -25.8 c 0,-6.2 -5.02,-11.22 -11.22,-11.22 h -358.8 c -6.2,0 -11.22,5.02 -11.22,11.22 z" /><path
       id="path28"
       style="fill:#fff2cc;fill-opacity:1;fill-rule:evenodd;stroke:none"
       d="m 291.12,308.33 c 0,12.43 10.08,22.51 22.51,22.51 h 304.3 c 12.43,0 22.51,-10.08 22.51,-22.51 V 55.748 c 0,-12.431 -10.08,-22.508 -22.51,-22.508 h -304.3 c -12.43,0 -22.51,10.077 -22.51,22.508 z" /><path
       id="path30"
       style="fill:#fff2cc;fill-opacity:1;fill-rule:evenodd;stroke:none"
       d="m 489.24,456.96 c 0,3.58 2.9,6.48 6.48,6.48 h 139.92 c 3.58,0 6.48,-2.9 6.48,-6.48 V 67.799 c 0,-3.578 -2.9,-6.479 -6.48,-6.479 H 495.72 c -3.58,0 -6.48,2.901 -6.48,6.479 z" /><path
       id="path32"
       style="fill:#fff2cc;fill-opacity:1;fill-rule:evenodd;stroke:none"
       d="m 338.76,165.7 c 0,14.72 11.94,26.66 26.66,26.66 h 233.96 c 14.72,0 26.66,-11.94 26.66,-26.66 V 71.421 C 626.04,56.697 614.1,44.76 599.38,44.76 H 365.42 c -14.72,0 -26.66,11.937 -26.66,26.661 z" /><path
       id="path34"
       style="fill:none;stroke:#000000;stroke-width:2.27999997;stroke-linecap:butt;stroke-linejoin:miter;stroke-miterlimit:10;stroke-dasharray:none;stroke-opacity:1"
       d="m 55.852,381.06 c -1.344,6.76 5.58,12.99 15.465,13.91 4.006,0.37 8.079,-0.19 11.567,-1.58 3.696,4.76 12.333,6.57 19.286,4.04 1.22,-0.44 2.34,-1 3.32,-1.66 2.88,3.95 9.89,5.55 15.66,3.58 1.6,-0.55 2.99,-1.33 4.07,-2.31 4.64,3.74 12.84,4.2 18.32,1.04 2.3,-1.34 3.85,-3.17 4.38,-5.2 7.6,-1.42 12.09,-6.79 10.02,-12 -0.18,-0.44 -0.39,-0.87 -0.66,-1.28 6.1,-5.43 4.61,-13.22 -3.33,-17.39 -2.47,-1.29 -5.39,-2.13 -8.47,-2.44 -0.07,-5.84 -7.06,-10.53 -15.6,-10.49 -2.86,0.02 -5.65,0.57 -8.07,1.61 -2.89,-6.55 -12.98,-10.25 -22.523,-8.27 -4.001,0.83 -7.458,2.59 -9.782,4.97 -9.775,-4.03 -22.463,-1.86 -28.339,4.85 -0.074,0.08 -0.146,0.17 -0.218,0.25 -6.397,-0.51 -12.192,2.61 -12.943,6.98 -0.4,2.32 0.723,4.65 3.069,6.36 -5.539,2.23 -7.4,7.13 -4.156,10.94 1.871,2.2 5.153,3.65 8.837,3.91 z" /><path
       id="path36"
       style="fill:none;stroke:#000000;stroke-width:2.27999997;stroke-linecap:butt;stroke-linejoin:miter;stroke-miterlimit:10;stroke-dasharray:none;stroke-opacity:1"
       d="m 57.974,365.19 c -2.365,-0.13 -4.73,0.24 -6.776,1.07 m 12.754,-12.8 c -0.951,-0.26 -1.947,-0.43 -2.964,-0.51 m 28.511,-5.12 c -0.716,0.73 -1.314,1.51 -1.787,2.34 m 34.818,3.49 c -0.1,-0.87 -0.34,-1.73 -0.71,-2.57 m 14.9,18.43 c 5.36,-1.79 8.74,-5.52 8.69,-9.59 m 11.82,19.81 c -0.87,-1.39 -2.19,-2.62 -3.87,-3.6 m -5.42,16.95 c 0.14,-0.57 0.21,-1.13 0.2,-1.7 m -24.94,3.68 c 0.51,0.78 1.18,1.51 1.99,2.16 m -20.54,-3.2 c 0.2,0.65 0.53,1.28 0.96,1.87 m -22.74,-2.5 c 1.262,-0.51 2.43,-1.11 3.477,-1.81 M 56.46,379.15 c -0.276,0.63 -0.479,1.26 -0.607,1.91" /><g
       id="g38"><g
         clip-path="url(#clipPath44)"
         id="g40"><text
           id="text48"
           style="font-variant:normal;font-weight:normal;font-size:24px;font-family:Calibri;-inkscape-font-specification:Calibri;writing-mode:lr-tb;fill:#000000;fill-opacity:1;fill-rule:nonzero;stroke:none"
           transform="matrix(1,0,0,-1,61.464,274.18)"><tspan
             id="tspan46"
             y="0"
             x="0 20.52 32.400002 40.439999 48.816002 54.335999 64.536003">Metrics</tspan></text>
</g></g><g
       id="g50"><g
         clip-path="url(#clipPath56)"
         id="g52"><g
           transform="matrix(0.78167,-3.77e-7,0,0.78167,216.48,253.92)"
           id="g58"><g
             transform="scale(0.6438,0.6437)"
             id="g60"><g
               clip-path="url(#clipPath66)"
               id="g62"><path
                 id="path68"
                 style="fill:#000000;fill-opacity:1;fill-rule:nonzero;stroke:none"
                 d="M 7.3426,70.877 C 7.9305,68.862 8.7463,66.918 9.7781,65.094 L 6.8387,61.387 C 5.8789,60.175 5.9868,58.448 7.0666,57.356 L 12.13,52.293 c 1.091,-1.092 2.819,-1.188 4.031,-0.228 l 3.683,2.915 c 1.896,-1.092 3.911,-1.943 6.011,-2.543 l 0.552,-4.739 c 0.18,-1.536 1.476,-2.688 3.011,-2.688 h 7.163 c 1.536,0 2.831,1.152 3.011,2.688 l 0.528,4.571 c 2.256,0.588 4.415,1.464 6.443,2.603 l 3.563,-2.819 c 1.212,-0.96 2.94,-0.852 4.032,0.228 l 5.063,5.063 c 1.091,1.092 1.187,2.819 0.228,4.031 l -2.772,3.515 c 1.152,1.992 2.052,4.116 2.652,6.335 l 4.271,0.492 c 1.536,0.18 2.687,1.476 2.687,3.012 v 7.162 c 0,1.536 -1.152,2.832 -2.687,3.012 l -4.211,0.492 c -0.576,2.195 -1.44,4.295 -2.544,6.262 l 2.592,3.276 c 0.96,1.211 0.852,2.939 -0.228,4.031 l -5.051,5.046 c -1.092,1.1 -2.82,1.19 -4.032,0.23 l -3.179,-2.52 c -2.064,1.22 -4.271,2.14 -6.587,2.76 l -0.48,4.12 c -0.18,1.53 -1.475,2.69 -3.011,2.69 h -7.163 c -1.535,0 -2.831,-1.16 -3.011,-2.69 l -0.48,-4.12 c -2.375,-0.63 -4.643,-1.59 -6.755,-2.85 l -3.299,2.61 c -1.212,0.96 -2.939,0.85 -4.031,-0.23 L 7.0668,98.952 C 5.975,97.86 5.879,96.132 6.8388,94.921 L 9.5983,91.429 C 8.4945,89.438 7.6546,87.314 7.1028,85.107 L 2.6876,84.603 C 1.1519,84.423 1.1998e-4,83.127 1.1998e-4,81.591 V 74.429 C 1.1998e-4,72.893 1.1519,71.597 2.6876,71.417 Z M 33.294,90.253 c 6.526,0 11.841,-5.315 11.841,-11.841 0,-6.527 -5.315,-11.842 -11.841,-11.842 -6.527,0 -11.842,5.315 -11.842,11.842 0,6.526 5.315,11.841 11.842,11.841 z" /><g
                 id="g70"><g
                   clip-path="url(#clipPath76)"
                   id="g72"><path
                     id="path78"
                     style="fill:#000000;fill-opacity:1;fill-rule:nonzero;stroke:none"
                     d="m 104.1,69.114 -3.78,3.191 c -1.159,0.984 -2.875,0.936 -3.979,-0.108 l -2.087,-1.956 c -1.764,0.852 -3.635,1.452 -5.567,1.8 l -0.588,2.879 c -0.3,1.488 -1.679,2.52 -3.191,2.4 L 79.977,76.9 c -1.512,-0.132 -2.7,-1.368 -2.748,-2.891 l -0.096,-2.928 c -1.895,-0.684 -3.683,-1.62 -5.315,-2.795 l -2.495,1.655 c -1.272,0.84 -2.964,0.6 -3.947,-0.564 L 62.184,65.574 C 61.2,64.41 61.248,62.695 62.292,61.591 l 2.184,-2.327 C 63.72,57.56 63.18,55.772 62.868,53.937 l -3.119,-0.636 c -1.488,-0.3 -2.52,-1.68 -2.4,-3.192 l 0.42,-4.931 c 0.132,-1.512 1.368,-2.699 2.891,-2.747 l 3.372,-0.108 c 0.612,-1.608 1.416,-3.132 2.387,-4.559 L 64.536,34.92 c -0.84,-1.272 -0.6,-2.963 0.563,-3.947 l 3.78,-3.191 c 1.164,-0.984 2.879,-0.936 3.983,0.108 l 2.472,2.315 c 1.619,-0.756 3.323,-1.32 5.075,-1.656 l 0.684,-3.383 c 0.299,-1.488 1.679,-2.519 3.191,-2.399 l 4.931,0.419 c 1.512,0.132 2.699,1.368 2.747,2.892 l 0.108,3.311 c 1.8,0.636 3.504,1.5 5.075,2.568 l 2.724,-1.8 c 1.271,-0.84 2.961,-0.6 3.951,0.564 l 3.19,3.779 c 0.98,1.164 0.93,2.88 -0.11,3.984 l -2.2,2.327 c 0.81,1.704 1.4,3.503 1.73,5.351 l 3,0.612 c 1.49,0.3 2.52,1.68 2.4,3.191 l -0.42,4.931 c -0.13,1.512 -1.37,2.7 -2.89,2.748 l -3.01,0.096 c -0.63,1.752 -1.47,3.407 -2.51,4.943 l 1.64,2.472 c 0.87,1.271 0.63,2.975 -0.54,3.959 z M 85.52,40.607 c -5.327,-0.456 -10.031,3.515 -10.474,8.842 -0.456,5.327 3.515,10.03 8.842,10.474 5.327,0.456 10.03,-3.515 10.474,-8.842 0.456,-5.327 -3.516,-10.03 -8.842,-10.474 z" /></g></g><path
                 id="path80"
                 style="fill:#000000;fill-opacity:1;fill-rule:nonzero;stroke:none"
                 d="M 24.595,27.338 C 23.084,27.182 21.92,25.91 21.908,24.386 l -0.036,-3.035 c -0.024,-1.524 1.104,-2.82 2.615,-3.012 l 2.232,-0.288 c 0.372,-1.356 0.9,-2.651 1.584,-3.875 L 26.863,12.4 c -0.96,-1.187 -0.888,-2.8912 0.18,-3.9829 l 2.123,-2.1716 c 1.068,-1.0918 2.772,-1.2118 3.984,-0.276 l 1.787,1.3798 C 36.197,6.6054 37.529,6.0174 38.92,5.6096 L 39.16,3.306 c 0.156,-1.5117 1.428,-2.67544 2.952,-2.68744 l 3.035,-0.03599 c 1.524,-0.02399 2.82,1.10383 3.012,2.61553 l 0.276,2.1835 c 1.512,0.3721 2.951,0.9359 4.319,1.6797 l 1.68,-1.3557 c 1.187,-0.9598 2.891,-0.8878 3.983,0.18 l 2.171,2.1235 c 1.092,1.0677 1.212,2.7719 0.277,3.9829 l -1.284,1.668 c 0.791,1.32 1.403,2.724 1.823,4.199 l 1.992,0.204 c 1.512,0.156 2.675,1.428 2.687,2.952 l 0.036,3.035 c 0.024,1.524 -1.103,2.82 -2.615,3.012 l -1.944,0.252 c -0.372,1.463 -0.924,2.879 -1.643,4.199 l 1.211,1.488 c 0.96,1.187 0.888,2.891 -0.18,3.983 l -2.123,2.171 c -1.068,1.092 -2.772,1.212 -3.983,0.276 L 53.39,38.316 c -1.368,0.827 -2.832,1.463 -4.367,1.895 l -0.192,1.884 c -0.156,1.512 -1.428,2.675 -2.952,2.687 l -3.035,0.036 c -1.524,0.024 -2.82,-1.103 -3.012,-2.615 l -0.24,-1.872 c -1.583,-0.408 -3.107,-1.032 -4.523,-1.847 l -1.499,1.223 c -1.188,0.96 -2.892,0.888 -3.984,-0.18 L 27.403,37.392 C 26.311,36.324 26.191,34.62 27.127,33.409 l 1.283,-1.656 c -0.743,-1.32 -1.331,-2.724 -1.715,-4.199 z m 19.593,3.431 c 4.355,-0.048 7.846,-3.635 7.798,-7.991 -0.048,-4.355 -3.635,-7.846 -7.991,-7.798 -4.355,0.048 -7.846,3.635 -7.798,7.991 0.048,4.355 3.635,7.846 7.991,7.798 z" /></g></g></g></g></g><g
       id="g82"><g
         clip-path="url(#clipPath88)"
         id="g84"><text
           id="text92"
           style="font-variant:normal;font-weight:normal;font-size:24.02400017px;font-family:Calibri;-inkscape-font-specification:Calibri;writing-mode:lr-tb;fill:#000000;fill-opacity:1;fill-rule:nonzero;stroke:none"
           transform="matrix(1,0,0,-1,205.32,363.38)"><tspan
             id="tspan90"
             y="0"
             x="0 12.420408 20.396376 33.057022 38.798759 50.762711 60.924866">Project</tspan></text>
</g></g><path
       id="path94"
       style="fill:none;stroke:#000000;stroke-width:2.27999997;stroke-linecap:butt;stroke-linejoin:miter;stroke-miterlimit:10;stroke-dasharray:none;stroke-opacity:1"
       d="m 411.54,305.18 c 0,-2.75 -8.89,-4.97 -19.86,-4.97 -10.97,0 -19.86,2.22 -19.86,4.97 0,2.74 8.89,4.96 19.86,4.96 10.97,0 19.86,-2.22 19.86,-4.96 z m 0,0 v -46.35 c 0,-2.75 -8.89,-4.97 -19.86,-4.97 -10.97,0 -19.86,2.22 -19.86,4.97 v 46.35" /><g
       id="g96"><g
         clip-path="url(#clipPath102)"
         id="g98"><text
           id="text106"
           style="font-variant:normal;font-weight:normal;font-size:24px;font-family:Calibri;-inkscape-font-specification:Calibri;writing-mode:lr-tb;fill:#000000;fill-opacity:1;fill-rule:nonzero;stroke:none"
           transform="matrix(1,0,0,-1,195.12,218.23)"><tspan
             id="tspan104"
             y="0"
             x="0 20.52 32.472 44.015999 53.400002 66 74.015999">Measure</tspan></text>
</g></g><g
       id="g108"><g
         clip-path="url(#clipPath114)"
         id="g110"><text
           id="text118"
           style="font-variant:normal;font-weight:normal;font-size:24px;font-family:Calibri;-inkscape-font-specification:Calibri;writing-mode:lr-tb;fill:#000000;fill-opacity:1;fill-rule:nonzero;stroke:none"
           transform="matrix(1,0,0,-1,306.7,218.23)"><tspan
             id="tspan116"
             y="0"
             x="0 20.52 32.472 44.015999 53.400002 66 74.015999 85.968002 105.144 117.192 129.552 137.592">Measurements</tspan></text>
</g></g><g
       id="g120"><g
         clip-path="url(#clipPath126)"
         id="g122"><g
           transform="matrix(0.78,-3.77e-7,-7.54e-7,0.78167,498.72,253.92)"
           id="g128"><g
             transform="scale(0.6438,0.6437)"
             id="g130"><g
               clip-path="url(#clipPath136)"
               id="g132"><path
                 id="path138"
                 style="fill:#000000;fill-opacity:1;fill-rule:nonzero;stroke:none"
                 d="M 7.3426,70.877 C 7.9305,68.862 8.7463,66.918 9.7781,65.094 L 6.8387,61.387 C 5.8789,60.175 5.9868,58.448 7.0666,57.356 L 12.13,52.293 c 1.091,-1.092 2.819,-1.188 4.031,-0.228 l 3.683,2.915 c 1.896,-1.092 3.911,-1.943 6.011,-2.543 l 0.552,-4.739 c 0.18,-1.536 1.476,-2.688 3.011,-2.688 h 7.163 c 1.536,0 2.831,1.152 3.011,2.688 l 0.528,4.571 c 2.256,0.588 4.415,1.464 6.443,2.603 l 3.563,-2.819 c 1.212,-0.96 2.94,-0.852 4.032,0.228 l 5.063,5.063 c 1.091,1.092 1.187,2.819 0.228,4.031 l -2.772,3.515 c 1.152,1.992 2.052,4.116 2.652,6.335 l 4.271,0.492 c 1.536,0.18 2.687,1.476 2.687,3.012 v 7.162 c 0,1.536 -1.152,2.832 -2.687,3.012 l -4.211,0.492 c -0.576,2.195 -1.44,4.295 -2.544,6.262 l 2.592,3.276 c 0.96,1.211 0.852,2.939 -0.228,4.031 l -5.051,5.046 c -1.092,1.1 -2.82,1.19 -4.032,0.23 l -3.179,-2.52 c -2.064,1.22 -4.271,2.14 -6.587,2.76 l -0.48,4.12 c -0.18,1.53 -1.475,2.69 -3.011,2.69 h -7.163 c -1.535,0 -2.831,-1.16 -3.011,-2.69 l -0.48,-4.12 c -2.375,-0.63 -4.643,-1.59 -6.755,-2.85 l -3.299,2.61 c -1.212,0.96 -2.939,0.85 -4.031,-0.23 L 7.0668,98.952 C 5.975,97.86 5.879,96.132 6.8388,94.921 L 9.5983,91.429 C 8.4945,89.438 7.6546,87.314 7.1028,85.107 L 2.6876,84.603 C 1.1519,84.423 1.1998e-4,83.127 1.1998e-4,81.591 V 74.429 C 1.1998e-4,72.893 1.1519,71.597 2.6876,71.417 Z M 33.294,90.253 c 6.526,0 11.841,-5.315 11.841,-11.841 0,-6.527 -5.315,-11.842 -11.841,-11.842 -6.527,0 -11.842,5.315 -11.842,11.842 0,6.526 5.315,11.841 11.842,11.841 z" /><g
                 id="g140"><g
                   clip-path="url(#clipPath146)"
                   id="g142"><path
                     id="path148"
                     style="fill:#000000;fill-opacity:1;fill-rule:nonzero;stroke:none"
                     d="m 104.1,69.114 -3.78,3.191 c -1.159,0.984 -2.875,0.936 -3.979,-0.108 l -2.087,-1.956 c -1.764,0.852 -3.635,1.452 -5.567,1.8 l -0.588,2.879 c -0.3,1.488 -1.679,2.52 -3.191,2.4 L 79.977,76.9 c -1.512,-0.132 -2.7,-1.368 -2.748,-2.891 l -0.096,-2.928 c -1.895,-0.684 -3.683,-1.62 -5.315,-2.795 l -2.495,1.655 c -1.272,0.84 -2.964,0.6 -3.947,-0.564 L 62.184,65.574 C 61.2,64.41 61.248,62.695 62.292,61.591 l 2.184,-2.327 C 63.72,57.56 63.18,55.772 62.868,53.937 l -3.119,-0.636 c -1.488,-0.3 -2.52,-1.68 -2.4,-3.192 l 0.42,-4.931 c 0.132,-1.512 1.368,-2.699 2.891,-2.747 l 3.372,-0.108 c 0.612,-1.608 1.416,-3.132 2.387,-4.559 L 64.536,34.92 c -0.84,-1.272 -0.6,-2.963 0.563,-3.947 l 3.78,-3.191 c 1.164,-0.984 2.879,-0.936 3.983,0.108 l 2.472,2.315 c 1.619,-0.756 3.323,-1.32 5.075,-1.656 l 0.684,-3.383 c 0.299,-1.488 1.679,-2.519 3.191,-2.399 l 4.931,0.419 c 1.512,0.132 2.699,1.368 2.747,2.892 l 0.108,3.311 c 1.8,0.636 3.504,1.5 5.075,2.568 l 2.724,-1.8 c 1.271,-0.84 2.961,-0.6 3.951,0.564 l 3.19,3.779 c 0.98,1.164 0.93,2.88 -0.11,3.984 l -2.2,2.327 c 0.81,1.704 1.4,3.503 1.73,5.351 l 3,0.612 c 1.49,0.3 2.52,1.68 2.4,3.191 l -0.42,4.931 c -0.13,1.512 -1.37,2.7 -2.89,2.748 l -3.01,0.096 c -0.63,1.752 -1.47,3.407 -2.51,4.943 l 1.64,2.472 c 0.87,1.271 0.63,2.975 -0.54,3.959 z M 85.52,40.607 c -5.327,-0.456 -10.031,3.515 -10.474,8.842 -0.456,5.327 3.515,10.03 8.842,10.474 5.327,0.456 10.03,-3.515 10.474,-8.842 0.456,-5.327 -3.516,-10.03 -8.842,-10.474 z" /></g></g><path
                 id="path150"
                 style="fill:#000000;fill-opacity:1;fill-rule:nonzero;stroke:none"
                 d="M 24.595,27.338 C 23.084,27.182 21.92,25.91 21.908,24.386 l -0.036,-3.035 c -0.024,-1.524 1.104,-2.82 2.615,-3.012 l 2.232,-0.288 c 0.372,-1.356 0.9,-2.651 1.584,-3.875 L 26.863,12.4 c -0.96,-1.187 -0.888,-2.8912 0.18,-3.9829 l 2.123,-2.1716 c 1.068,-1.0918 2.772,-1.2118 3.984,-0.276 l 1.787,1.3798 C 36.197,6.6054 37.529,6.0174 38.92,5.6096 L 39.16,3.306 c 0.156,-1.5117 1.428,-2.67544 2.952,-2.68744 l 3.035,-0.03599 c 1.524,-0.02399 2.82,1.10383 3.012,2.61553 l 0.276,2.1835 c 1.512,0.3721 2.951,0.9359 4.319,1.6797 l 1.68,-1.3557 c 1.187,-0.9598 2.891,-0.8878 3.983,0.18 l 2.171,2.1235 c 1.092,1.0677 1.212,2.7719 0.277,3.9829 l -1.284,1.668 c 0.791,1.32 1.403,2.724 1.823,4.199 l 1.992,0.204 c 1.512,0.156 2.675,1.428 2.687,2.952 l 0.036,3.035 c 0.024,1.524 -1.103,2.82 -2.615,3.012 l -1.944,0.252 c -0.372,1.463 -0.924,2.879 -1.643,4.199 l 1.211,1.488 c 0.96,1.187 0.888,2.891 -0.18,3.983 l -2.123,2.171 c -1.068,1.092 -2.772,1.212 -3.983,0.276 L 53.39,38.316 c -1.368,0.827 -2.832,1.463 -4.367,1.895 l -0.192,1.884 c -0.156,1.512 -1.428,2.675 -2.952,2.687 l -3.035,0.036 c -1.524,0.024 -2.82,-1.103 -3.012,-2.615 l -0.24,-1.872 c -1.583,-0.408 -3.107,-1.032 -4.523,-1.847 l -1.499,1.223 c -1.188,0.96 -2.892,0.888 -3.984,-0.18 L 27.403,37.392 C 26.311,36.324 26.191,34.62 27.127,33.409 l 1.283,-1.656 c -0.743,-1.32 -1.331,-2.724 -1.715,-4.199 z m 19.593,3.431 c 4.355,-0.048 7.846,-3.635 7.798,-7.991 -0.048,-4.355 -3.635,-7.846 -7.991,-7.798 -4.355,0.048 -7.846,3.635 -7.798,7.991 0.048,4.355 3.635,7.846 7.991,7.798 z" /></g></g></g></g></g><g
       id="g152"><g
         clip-path="url(#clipPath158)"
         id="g154"><text
           id="text162"
           style="font-variant:normal;font-weight:normal;font-size:24.02400017px;font-family:Calibri;-inkscape-font-specification:Calibri;writing-mode:lr-tb;fill:#000000;fill-opacity:1;fill-rule:nonzero;stroke:none"
           transform="matrix(1,0,0,-1,573.67,274.37)"><tspan
             id="tspan160"
             y="0"
             x="0 20.54052 33.129097 45.741695 57.705647">Model</tspan></text>
</g></g><g
       id="g164"><g
         clip-path="url(#clipPath170)"
         id="g166"><g
           transform="matrix(0.78,0,-7.54e-7,0.78,498.72,105)"
           id="g172"><g
             transform="scale(0.6438,0.6437)"
             id="g174"><g
               clip-path="url(#clipPath180)"
               id="g176"><path
                 id="path182"
                 style="fill:#000000;fill-opacity:1;fill-rule:nonzero;stroke:none"
                 d="M 7.3426,70.877 C 7.9305,68.862 8.7463,66.918 9.7781,65.094 L 6.8387,61.387 C 5.8789,60.175 5.9868,58.448 7.0666,57.356 L 12.13,52.293 c 1.091,-1.092 2.819,-1.188 4.031,-0.228 l 3.683,2.915 c 1.896,-1.092 3.911,-1.943 6.011,-2.543 l 0.552,-4.739 c 0.18,-1.536 1.476,-2.688 3.011,-2.688 h 7.163 c 1.536,0 2.831,1.152 3.011,2.688 l 0.528,4.571 c 2.256,0.588 4.415,1.464 6.443,2.603 l 3.563,-2.819 c 1.212,-0.96 2.94,-0.852 4.032,0.228 l 5.063,5.063 c 1.091,1.092 1.187,2.819 0.228,4.031 l -2.772,3.515 c 1.152,1.992 2.052,4.116 2.652,6.335 l 4.271,0.492 c 1.536,0.18 2.687,1.476 2.687,3.012 v 7.162 c 0,1.536 -1.152,2.832 -2.687,3.012 l -4.211,0.492 c -0.576,2.195 -1.44,4.295 -2.544,6.262 l 2.592,3.276 c 0.96,1.211 0.852,2.939 -0.228,4.031 l -5.051,5.046 c -1.092,1.1 -2.82,1.19 -4.032,0.23 l -3.179,-2.52 c -2.064,1.22 -4.271,2.14 -6.587,2.76 l -0.48,4.12 c -0.18,1.53 -1.475,2.69 -3.011,2.69 h -7.163 c -1.535,0 -2.831,-1.16 -3.011,-2.69 l -0.48,-4.12 c -2.375,-0.63 -4.643,-1.59 -6.755,-2.85 l -3.299,2.61 c -1.212,0.96 -2.939,0.85 -4.031,-0.23 L 7.0668,98.952 C 5.975,97.86 5.879,96.132 6.8388,94.921 L 9.5983,91.429 C 8.4945,89.438 7.6546,87.314 7.1028,85.107 L 2.6876,84.603 C 1.1519,84.423 1.1998e-4,83.127 1.1998e-4,81.591 V 74.429 C 1.1998e-4,72.893 1.1519,71.597 2.6876,71.417 Z M 33.294,90.253 c 6.526,0 11.841,-5.315 11.841,-11.841 0,-6.527 -5.315,-11.842 -11.841,-11.842 -6.527,0 -11.842,5.315 -11.842,11.842 0,6.526 5.315,11.841 11.842,11.841 z" /><g
                 id="g184"><g
                   clip-path="url(#clipPath190)"
                   id="g186"><path
                     id="path192"
                     style="fill:#000000;fill-opacity:1;fill-rule:nonzero;stroke:none"
                     d="m 104.1,69.114 -3.78,3.191 c -1.159,0.984 -2.875,0.936 -3.979,-0.108 l -2.087,-1.956 c -1.764,0.852 -3.635,1.452 -5.567,1.8 l -0.588,2.879 c -0.3,1.488 -1.679,2.52 -3.191,2.4 L 79.977,76.9 c -1.512,-0.132 -2.7,-1.368 -2.748,-2.891 l -0.096,-2.928 c -1.895,-0.684 -3.683,-1.62 -5.315,-2.795 l -2.495,1.655 c -1.272,0.84 -2.964,0.6 -3.947,-0.564 L 62.184,65.574 C 61.2,64.41 61.248,62.695 62.292,61.591 l 2.184,-2.327 C 63.72,57.56 63.18,55.772 62.868,53.937 l -3.119,-0.636 c -1.488,-0.3 -2.52,-1.68 -2.4,-3.192 l 0.42,-4.931 c 0.132,-1.512 1.368,-2.699 2.891,-2.747 l 3.372,-0.108 c 0.612,-1.608 1.416,-3.132 2.387,-4.559 L 64.536,34.92 c -0.84,-1.272 -0.6,-2.963 0.563,-3.947 l 3.78,-3.191 c 1.164,-0.984 2.879,-0.936 3.983,0.108 l 2.472,2.315 c 1.619,-0.756 3.323,-1.32 5.075,-1.656 l 0.684,-3.383 c 0.299,-1.488 1.679,-2.519 3.191,-2.399 l 4.931,0.419 c 1.512,0.132 2.699,1.368 2.747,2.892 l 0.108,3.311 c 1.8,0.636 3.504,1.5 5.075,2.568 l 2.724,-1.8 c 1.271,-0.84 2.961,-0.6 3.951,0.564 l 3.19,3.779 c 0.98,1.164 0.93,2.88 -0.11,3.984 l -2.2,2.327 c 0.81,1.704 1.4,3.503 1.73,5.351 l 3,0.612 c 1.49,0.3 2.52,1.68 2.4,3.191 l -0.42,4.931 c -0.13,1.512 -1.37,2.7 -2.89,2.748 l -3.01,0.096 c -0.63,1.752 -1.47,3.407 -2.51,4.943 l 1.64,2.472 c 0.87,1.271 0.63,2.975 -0.54,3.959 z M 85.52,40.607 c -5.327,-0.456 -10.031,3.515 -10.474,8.842 -0.456,5.327 3.515,10.03 8.842,10.474 5.327,0.456 10.03,-3.515 10.474,-8.842 0.456,-5.327 -3.516,-10.03 -8.842,-10.474 z" /></g></g><path
                 id="path194"
                 style="fill:#000000;fill-opacity:1;fill-rule:nonzero;stroke:none"
                 d="M 24.595,27.338 C 23.084,27.182 21.92,25.91 21.908,24.386 l -0.036,-3.035 c -0.024,-1.524 1.104,-2.82 2.615,-3.012 l 2.232,-0.288 c 0.372,-1.356 0.9,-2.651 1.584,-3.875 L 26.863,12.4 c -0.96,-1.187 -0.888,-2.8912 0.18,-3.9829 l 2.123,-2.1716 c 1.068,-1.0918 2.772,-1.2118 3.984,-0.276 l 1.787,1.3798 C 36.197,6.6054 37.529,6.0174 38.92,5.6096 L 39.16,3.306 c 0.156,-1.5117 1.428,-2.67544 2.952,-2.68744 l 3.035,-0.03599 c 1.524,-0.02399 2.82,1.10383 3.012,2.61553 l 0.276,2.1835 c 1.512,0.3721 2.951,0.9359 4.319,1.6797 l 1.68,-1.3557 c 1.187,-0.9598 2.891,-0.8878 3.983,0.18 l 2.171,2.1235 c 1.092,1.0677 1.212,2.7719 0.277,3.9829 l -1.284,1.668 c 0.791,1.32 1.403,2.724 1.823,4.199 l 1.992,0.204 c 1.512,0.156 2.675,1.428 2.687,2.952 l 0.036,3.035 c 0.024,1.524 -1.103,2.82 -2.615,3.012 l -1.944,0.252 c -0.372,1.463 -0.924,2.879 -1.643,4.199 l 1.211,1.488 c 0.96,1.187 0.888,2.891 -0.18,3.983 l -2.123,2.171 c -1.068,1.092 -2.772,1.212 -3.983,0.276 L 53.39,38.316 c -1.368,0.827 -2.832,1.463 -4.367,1.895 l -0.192,1.884 c -0.156,1.512 -1.428,2.675 -2.952,2.687 l -3.035,0.036 c -1.524,0.024 -2.82,-1.103 -3.012,-2.615 l -0.24,-1.872 c -1.583,-0.408 -3.107,-1.032 -4.523,-1.847 l -1.499,1.223 c -1.188,0.96 -2.892,0.888 -3.984,-0.18 L 27.403,37.392 C 26.311,36.324 26.191,34.62 27.127,33.409 l 1.283,-1.656 c -0.743,-1.32 -1.331,-2.724 -1.715,-4.199 z m 19.593,3.431 c 4.355,-0.048 7.846,-3.635 7.798,-7.991 -0.048,-4.355 -3.635,-7.846 -7.991,-7.798 -4.355,0.048 -7.846,3.635 -7.798,7.991 0.048,4.355 3.635,7.846 7.991,7.798 z" /></g></g></g></g></g><g
       id="g196"><g
         clip-path="url(#clipPath202)"
         id="g198"><text
           id="text206"
           style="font-variant:normal;font-weight:normal;font-size:24px;font-family:Calibri;-inkscape-font-specification:Calibri;writing-mode:lr-tb;fill:#000000;fill-opacity:1;fill-rule:nonzero;stroke:none"
           transform="matrix(1,0,0,-1,480.67,78.816)"><tspan
             id="tspan204"
             y="0"
             x="0 10.68 22.632 34.655998 47.256001 59.855999 71.351997 81.552002">Feedback</tspan></text>
</g></g><g
       id="g208"><g
         clip-path="url(#clipPath214)"
         id="g210"><text
           id="text218"
           style="font-variant:normal;font-weight:normal;font-size:24.02400017px;font-family:Calibri;-inkscape-font-specification:Calibri;writing-mode:lr-tb;fill:#000000;fill-opacity:1;fill-rule:nonzero;stroke:none"
           transform="matrix(1,0,0,-1,472.03,50.016)"><tspan
             id="tspan216"
             y="0"
             x="0 15.159144 27.123096 39.735695 51.69965 59.651592 70.942871 78.990913 84.516434 97.105011">Generation</tspan></text>
</g></g><g
       id="g220"><g
         clip-path="url(#clipPath226)"
         id="g222"><text
           id="text230"
           style="font-variant:normal;font-weight:normal;font-size:24px;font-family:Calibri;-inkscape-font-specification:Calibri;writing-mode:lr-tb;fill:#000000;fill-opacity:1;fill-rule:nonzero;stroke:none"
           transform="matrix(1,0,0,-1,41.496,472.85)"><tspan
             id="tspan228"
             y="0"
             x="0 12.96 25.559999 31.08 43.68 55.632 63.599998 75.096001 87.695999 93.216003 98.736 104.256 112.296">Vulnerability</tspan></text>
</g></g><g
       id="g232"><g
         clip-path="url(#clipPath238)"
         id="g234"><text
           id="text242"
           style="font-variant:normal;font-weight:normal;font-size:24px;font-family:Calibri;-inkscape-font-specification:Calibri;writing-mode:lr-tb;fill:#000000;fill-opacity:1;fill-rule:nonzero;stroke:none"
           transform="matrix(1,0,0,-1,56.016,444.05)"><tspan
             id="tspan240"
             y="0"
             x="0 14.76 20.280001 29.664 39.599998 52.080002 62.639999 74.592003 83.136002">Discovery</tspan></text>
</g></g><g
       id="g244"><g
         clip-path="url(#clipPath250)"
         id="g246"><text
           id="text254"
           style="font-variant:normal;font-weight:normal;font-size:24px;font-family:Calibri;-inkscape-font-specification:Calibri;writing-mode:lr-tb;fill:#000000;fill-opacity:1;fill-rule:nonzero;stroke:none"
           transform="matrix(1,0,0,-1,55.416,415.25)"><tspan
             id="tspan252"
             y="0"
             x="0 10.08 15.6 23.4 35.352001 43.32 54.599998 62.639999 75.239998 83.279999">Literature</tspan></text>
</g></g><g
       id="g256"><g
         clip-path="url(#clipPath262)"
         id="g258"><text
           id="text266"
           style="font-variant:normal;font-weight:normal;font-size:24px;font-family:Calibri;-inkscape-font-specification:Calibri;writing-mode:lr-tb;fill:#000000;fill-opacity:1;fill-rule:nonzero;stroke:none"
           transform="matrix(1,0,0,-1,309.12,139.66)"><tspan
             id="tspan264"
             y="0"
             x="0 10.68 22.632 34.655998 47.256001 59.855999 71.351997 81.552002">Feedback</tspan></text>
</g></g><g
       id="g268"><g
         clip-path="url(#clipPath274)"
         id="g270"><text
           id="text278"
           style="font-variant:normal;font-weight:normal;font-size:24px;font-family:Calibri;-inkscape-font-specification:Calibri;writing-mode:lr-tb;fill:#000000;fill-opacity:1;fill-rule:nonzero;stroke:none"
           transform="matrix(1,0,0,-1,298.44,110.86)"><tspan
             id="tspan276"
             y="0"
             x="0 9.4799995 21.431999 40.608002 53.208 58.728001 70.080002 77.879997 89.832001 97.176003 106.56">Template(s)</tspan></text>
</g></g><path
       id="path280"
       style="fill:#000000;fill-opacity:1;fill-rule:nonzero;stroke:none"
       d="m 151.98,280.92 h 62.28 v 2.28 h -62.28 z m 56.02,-3.83 8.52,4.97 -8.52,4.97 c -0.55,0.32 -1.25,0.14 -1.56,-0.41 -0.32,-0.54 -0.14,-1.24 0.41,-1.55 l 6.84,-3.99 v 1.96 l -6.84,-3.99 c -0.55,-0.31 -0.73,-1.01 -0.41,-1.55 0.31,-0.55 1.01,-0.73 1.56,-0.41 z" /><path
       id="path282"
       style="fill:#000000;fill-opacity:1;fill-rule:nonzero;stroke:none"
       d="m 272.82,283.2 h 96.72 v -2.28 h -96.72 z m 90.46,3.83 8.53,-4.97 -8.53,-4.97 v 0 c -0.55,-0.32 -1.24,-0.14 -1.56,0.41 -0.32,0.54 -0.14,1.24 0.41,1.55 l 6.84,3.99 v -1.96 l -6.84,3.99 v 0 c -0.55,0.31 -0.73,1.01 -0.41,1.55 0.32,0.55 1.01,0.73 1.56,0.41 z" /><path
       id="path284"
       style="fill:#000000;fill-opacity:1;fill-rule:nonzero;stroke:none"
       d="m 411.54,280.92 h 84.94 v 2.28 h -84.94 z m 78.67,-3.83 8.53,4.97 -8.53,4.97 c -0.54,0.32 -1.24,0.14 -1.56,-0.41 -0.32,-0.54 -0.13,-1.24 0.41,-1.55 l 6.84,-3.99 v 1.96 l -6.84,-3.99 v 0 c -0.54,-0.31 -0.73,-1.01 -0.41,-1.55 0.32,-0.55 1.02,-0.73 1.56,-0.41 z" /><path
       id="path286"
       style="fill:#000000;fill-opacity:1;fill-rule:nonzero;stroke:none"
       d="m 528,253.86 v -90.51 h -2.28 v 90.51 z m 3.83,-84.25 -4.97,-8.53 -4.97,8.53 c -0.32,0.55 -0.14,1.24 0.41,1.56 0.54,0.32 1.24,0.13 1.55,-0.41 v 0 l 3.99,-6.84 h -1.96 l 3.99,6.84 c 0.31,0.54 1.01,0.73 1.55,0.41 0.55,-0.32 0.73,-1.01 0.41,-1.56 z" /><path
       id="path288"
       style="fill:#000000;fill-opacity:1;fill-rule:nonzero;stroke:none"
       d="m 428.1,134.16 h 9.12 v -2.28 h -9.12 z m 15.96,0 h 9.12 v -2.28 h -9.12 z m 15.96,0 h 9.12 v -2.28 h -9.12 z m 15.96,0 h 9.12 v -2.28 h -9.12 z m 15.96,0 h 4.59 v -2.28 h -4.59 z m -1.68,3.83 8.53,-4.97 -8.53,-4.97 v 0 c -0.54,-0.32 -1.24,-0.14 -1.56,0.41 -0.32,0.54 -0.13,1.24 0.41,1.55 l 6.84,3.99 v -1.96 l -6.84,3.99 c -0.54,0.31 -0.73,1.01 -0.41,1.55 0.32,0.55 1.02,0.73 1.56,0.41 z" /><g
       id="g290"><g
         clip-path="url(#clipPath296)"
         id="g292"><g
           transform="matrix(0.495,-3.77e-7,-7.54e-7,0.495,826.8,242.16)"
           id="g298"><g
             transform="scale(1.242,1.2423)"
             id="g300"><g
               clip-path="url(#clipPath306)"
               id="g302"><path
                 id="path308"
                 style="fill:#000000;fill-opacity:1;fill-rule:nonzero;stroke:none"
                 d="m 28.77,26.728 c 0.06,0 0.12,0 0.192,0 0.024,0 0.048,0 0.072,0 0.036,0 0.084,0 0.12,0 3.517,0.06 6.361,1.296 8.462,3.661 4.621,5.209 3.853,14.139 3.769,14.991 -0.3,6.397 -3.325,9.458 -5.822,10.886 -1.86,1.068 -4.032,1.644 -6.457,1.692 h -0.084 c -0.012,0 -0.036,0 -0.048,0 h -0.072 c -1.332,0 -3.949,-0.216 -6.457,-1.644 -2.521,-1.428 -5.594,-4.489 -5.894,-10.934 -0.084,-0.852 -0.852,-9.782 3.769,-14.991 2.089,-2.365 4.933,-3.601 8.45,-3.661 z M 19.756,45.08 c 0,0.036 0.012,0.072 0.012,0.096 0.396,8.606 6.505,9.53 9.122,9.53 h 0.048 c 0.024,0 0.06,0 0.096,0 3.241,-0.072 8.75,-1.393 9.122,-9.53 0,-0.036 0,-0.072 0.012,-0.096 0.012,-0.084 0.852,-8.246 -2.965,-12.543 -1.512,-1.704 -3.528,-2.544 -6.181,-2.568 -0.024,0 -0.036,0 -0.06,0 v 0 c -0.024,0 -0.036,0 -0.06,0 -2.641,0.024 -4.669,0.864 -6.169,2.568 -3.805,4.273 -2.989,12.471 -2.977,12.543 z" /><g
                 id="g310"><g
                   clip-path="url(#clipPath316)"
                   id="g312"><path
                     id="path318"
                     style="fill:#000000;fill-opacity:1;fill-rule:nonzero;stroke:none"
                     d="m 53.627,11.917 c 0,0.012 0,0.024 0,0.036 0,0.096 -0.012,0.192 -0.012,0.3 -0.072,2.376 -0.228,7.934 -5.437,9.71 -0.036,0.012 -0.084,0.024 -0.12,0.036 -5.413,1.38 -9.914,4.501 -9.962,4.537 -0.732,0.516 -1.74,0.336 -2.257,-0.396 -0.516,-0.732 -0.336,-1.741 0.397,-2.257 0.204,-0.144 4.981,-3.468 10.958,-5.005 2.796,-0.996 3.108,-3.985 3.192,-6.721 0,-0.108 0,-0.204 0.012,-0.3 C 50.41,10.777 50.338,9.1083 50.146,8.1481 48.202,7.0438 40.58,3.227 28.986,3.227 17.44,3.227 9.77,7.0558 7.8136,8.1601 c -0.192,0.9602 -0.276,2.6289 -0.252,3.7089 0,0.096 0.012,0.192 0.012,0.3 0.084,2.736 0.396,5.725 3.1924,6.721 5.977,1.537 10.754,4.873 10.958,5.005 0.733,0.516 0.913,1.525 0.397,2.257 -0.517,0.732 -1.525,0.912 -2.257,0.396 C 19.816,26.512 15.339,23.391 9.902,22.011 9.854,21.999 9.818,21.987 9.782,21.975 4.5729,20.187 4.4169,14.629 4.3449,12.265 c 0,-0.108 0,-0.204 -0.012,-0.3 0,-0.012 0,-0.024 0,-0.036 -0.012,-0.624 -0.024,-3.8289 0.6121,-5.4373 0.12,-0.312 0.3361,-0.5761 0.6242,-0.7561 0.36,-0.2401 8.9898,-5.7372212 23.4288,-5.7372212 14.439,0 23.069,5.5091212 23.429,5.7372212 0.276,0.18 0.504,0.4441 0.624,0.7561 0.6,1.5964 0.588,4.8013 0.576,5.4253 z" /></g></g></g></g></g></g></g><g
       id="g320"><g
         clip-path="url(#clipPath326)"
         id="g322"><g
           transform="matrix(0.495,-3.77e-7,0,0.495,697.44,240.96)"
           id="g328"><g
             transform="scale(1.242,1.2423)"
             id="g330"><g
               clip-path="url(#clipPath336)"
               id="g332"><path
                 id="path338"
                 style="fill:#ffc000;fill-opacity:1;fill-rule:nonzero;stroke:none"
                 d="m 28.77,26.728 c 0.06,0 0.12,0 0.192,0 0.024,0 0.048,0 0.072,0 0.036,0 0.084,0 0.12,0 3.517,0.06 6.361,1.296 8.462,3.661 4.621,5.209 3.853,14.139 3.769,14.991 -0.3,6.397 -3.325,9.458 -5.822,10.886 -1.86,1.068 -4.032,1.644 -6.457,1.692 h -0.084 c -0.012,0 -0.036,0 -0.048,0 h -0.072 c -1.332,0 -3.949,-0.216 -6.457,-1.644 -2.521,-1.428 -5.594,-4.489 -5.894,-10.934 -0.084,-0.852 -0.852,-9.782 3.769,-14.991 2.089,-2.365 4.933,-3.601 8.45,-3.661 z M 19.756,45.08 c 0,0.036 0.012,0.072 0.012,0.096 0.396,8.606 6.505,9.53 9.122,9.53 h 0.048 c 0.024,0 0.06,0 0.096,0 3.241,-0.072 8.75,-1.393 9.122,-9.53 0,-0.036 0,-0.072 0.012,-0.096 0.012,-0.084 0.852,-8.246 -2.965,-12.543 -1.512,-1.704 -3.528,-2.544 -6.181,-2.568 -0.024,0 -0.036,0 -0.06,0 v 0 c -0.024,0 -0.036,0 -0.06,0 -2.641,0.024 -4.669,0.864 -6.169,2.568 -3.805,4.273 -2.989,12.471 -2.977,12.543 z" /><g
                 id="g340"><g
                   clip-path="url(#clipPath346)"
                   id="g342"><path
                     id="path348"
                     style="fill:#ffc000;fill-opacity:1;fill-rule:nonzero;stroke:none"
                     d="m 53.627,11.917 c 0,0.012 0,0.024 0,0.036 0,0.096 -0.012,0.192 -0.012,0.3 -0.072,2.376 -0.228,7.934 -5.437,9.71 -0.036,0.012 -0.084,0.024 -0.12,0.036 -5.413,1.38 -9.914,4.501 -9.962,4.537 -0.732,0.516 -1.74,0.336 -2.257,-0.396 -0.516,-0.732 -0.336,-1.741 0.397,-2.257 0.204,-0.144 4.981,-3.468 10.958,-5.005 2.796,-0.996 3.108,-3.985 3.192,-6.721 0,-0.108 0,-0.204 0.012,-0.3 C 50.41,10.777 50.338,9.1083 50.146,8.1481 48.202,7.0438 40.58,3.227 28.986,3.227 17.44,3.227 9.77,7.0558 7.8136,8.1601 c -0.192,0.9602 -0.276,2.6289 -0.252,3.7089 0,0.096 0.012,0.192 0.012,0.3 0.084,2.736 0.396,5.725 3.1924,6.721 5.977,1.537 10.754,4.873 10.958,5.005 0.733,0.516 0.913,1.525 0.397,2.257 -0.517,0.732 -1.525,0.912 -2.257,0.396 C 19.816,26.512 15.339,23.391 9.902,22.011 9.854,21.999 9.818,21.987 9.782,21.975 4.5729,20.187 4.4169,14.629 4.3449,12.265 c 0,-0.108 0,-0.204 -0.012,-0.3 0,-0.012 0,-0.024 0,-0.036 -0.012,-0.624 -0.024,-3.8289 0.6121,-5.4373 0.12,-0.312 0.3361,-0.5761 0.6242,-0.7561 0.36,-0.2401 8.9898,-5.7372212 23.4288,-5.7372212 14.439,0 23.069,5.5091212 23.429,5.7372212 0.276,0.18 0.504,0.4441 0.624,0.7561 0.6,1.5964 0.588,4.8013 0.576,5.4253 z" /></g></g></g></g></g></g></g><g
       id="g350"><g
         clip-path="url(#clipPath356)"
         id="g352"><g
           transform="matrix(0.495,-3.77e-7,-7.54e-7,0.49333,674.04,257.64)"
           id="g358"><g
             transform="scale(1.242,1.2423)"
             id="g360"><g
               clip-path="url(#clipPath366)"
               id="g362"><path
                 id="path368"
                 style="fill:#ffc000;fill-opacity:1;fill-rule:nonzero;stroke:none"
                 d="m 28.77,26.728 c 0.06,0 0.12,0 0.192,0 0.024,0 0.048,0 0.072,0 0.036,0 0.084,0 0.12,0 3.517,0.06 6.361,1.296 8.462,3.661 4.621,5.209 3.853,14.139 3.769,14.991 -0.3,6.397 -3.325,9.458 -5.822,10.886 -1.86,1.068 -4.032,1.644 -6.457,1.692 h -0.084 c -0.012,0 -0.036,0 -0.048,0 h -0.072 c -1.332,0 -3.949,-0.216 -6.457,-1.644 -2.521,-1.428 -5.594,-4.489 -5.894,-10.934 -0.084,-0.852 -0.852,-9.782 3.769,-14.991 2.089,-2.365 4.933,-3.601 8.45,-3.661 z M 19.756,45.08 c 0,0.036 0.012,0.072 0.012,0.096 0.396,8.606 6.505,9.53 9.122,9.53 h 0.048 c 0.024,0 0.06,0 0.096,0 3.241,-0.072 8.75,-1.393 9.122,-9.53 0,-0.036 0,-0.072 0.012,-0.096 0.012,-0.084 0.852,-8.246 -2.965,-12.543 -1.512,-1.704 -3.528,-2.544 -6.181,-2.568 -0.024,0 -0.036,0 -0.06,0 v 0 c -0.024,0 -0.036,0 -0.06,0 -2.641,0.024 -4.669,0.864 -6.169,2.568 -3.805,4.273 -2.989,12.471 -2.977,12.543 z" /><g
                 id="g370"><g
                   clip-path="url(#clipPath376)"
                   id="g372"><path
                     id="path378"
                     style="fill:#ffc000;fill-opacity:1;fill-rule:nonzero;stroke:none"
                     d="m 53.627,11.917 c 0,0.012 0,0.024 0,0.036 0,0.096 -0.012,0.192 -0.012,0.3 -0.072,2.376 -0.228,7.934 -5.437,9.71 -0.036,0.012 -0.084,0.024 -0.12,0.036 -5.413,1.38 -9.914,4.501 -9.962,4.537 -0.732,0.516 -1.74,0.336 -2.257,-0.396 -0.516,-0.732 -0.336,-1.741 0.397,-2.257 0.204,-0.144 4.981,-3.468 10.958,-5.005 2.796,-0.996 3.108,-3.985 3.192,-6.721 0,-0.108 0,-0.204 0.012,-0.3 C 50.41,10.777 50.338,9.1083 50.146,8.1481 48.202,7.0438 40.58,3.227 28.986,3.227 17.44,3.227 9.77,7.0558 7.8136,8.1601 c -0.192,0.9602 -0.276,2.6289 -0.252,3.7089 0,0.096 0.012,0.192 0.012,0.3 0.084,2.736 0.396,5.725 3.1924,6.721 5.977,1.537 10.754,4.873 10.958,5.005 0.733,0.516 0.913,1.525 0.397,2.257 -0.517,0.732 -1.525,0.912 -2.257,0.396 C 19.816,26.512 15.339,23.391 9.902,22.011 9.854,21.999 9.818,21.987 9.782,21.975 4.5729,20.187 4.4169,14.629 4.3449,12.265 c 0,-0.108 0,-0.204 -0.012,-0.3 0,-0.012 0,-0.024 0,-0.036 -0.012,-0.624 -0.024,-3.8289 0.6121,-5.4373 0.12,-0.312 0.3361,-0.5761 0.6242,-0.7561 0.36,-0.2401 8.9898,-5.7372212 23.4288,-5.7372212 14.439,0 23.069,5.5091212 23.429,5.7372212 0.276,0.18 0.504,0.4441 0.624,0.7561 0.6,1.5964 0.588,4.8013 0.576,5.4253 z" /></g></g></g></g></g></g></g><g
       id="g380"><g
         clip-path="url(#clipPath386)"
         id="g382"><g
           transform="matrix(0.495,-3.77e-7,-7.54e-7,0.49333,720.84,257.64)"
           id="g388"><g
             transform="scale(1.242,1.2423)"
             id="g390"><g
               clip-path="url(#clipPath396)"
               id="g392"><path
                 id="path398"
                 style="fill:#ffc000;fill-opacity:1;fill-rule:nonzero;stroke:none"
                 d="m 28.77,26.728 c 0.06,0 0.12,0 0.192,0 0.024,0 0.048,0 0.072,0 0.036,0 0.084,0 0.12,0 3.517,0.06 6.361,1.296 8.462,3.661 4.621,5.209 3.853,14.139 3.769,14.991 -0.3,6.397 -3.325,9.458 -5.822,10.886 -1.86,1.068 -4.032,1.644 -6.457,1.692 h -0.084 c -0.012,0 -0.036,0 -0.048,0 h -0.072 c -1.332,0 -3.949,-0.216 -6.457,-1.644 -2.521,-1.428 -5.594,-4.489 -5.894,-10.934 -0.084,-0.852 -0.852,-9.782 3.769,-14.991 2.089,-2.365 4.933,-3.601 8.45,-3.661 z M 19.756,45.08 c 0,0.036 0.012,0.072 0.012,0.096 0.396,8.606 6.505,9.53 9.122,9.53 h 0.048 c 0.024,0 0.06,0 0.096,0 3.241,-0.072 8.75,-1.393 9.122,-9.53 0,-0.036 0,-0.072 0.012,-0.096 0.012,-0.084 0.852,-8.246 -2.965,-12.543 -1.512,-1.704 -3.528,-2.544 -6.181,-2.568 -0.024,0 -0.036,0 -0.06,0 v 0 c -0.024,0 -0.036,0 -0.06,0 -2.641,0.024 -4.669,0.864 -6.169,2.568 -3.805,4.273 -2.989,12.471 -2.977,12.543 z" /><g
                 id="g400"><g
                   clip-path="url(#clipPath406)"
                   id="g402"><path
                     id="path408"
                     style="fill:#ffc000;fill-opacity:1;fill-rule:nonzero;stroke:none"
                     d="m 53.627,11.917 c 0,0.012 0,0.024 0,0.036 0,0.096 -0.012,0.192 -0.012,0.3 -0.072,2.376 -0.228,7.934 -5.437,9.71 -0.036,0.012 -0.084,0.024 -0.12,0.036 -5.413,1.38 -9.914,4.501 -9.962,4.537 -0.732,0.516 -1.74,0.336 -2.257,-0.396 -0.516,-0.732 -0.336,-1.741 0.397,-2.257 0.204,-0.144 4.981,-3.468 10.958,-5.005 2.796,-0.996 3.108,-3.985 3.192,-6.721 0,-0.108 0,-0.204 0.012,-0.3 C 50.41,10.777 50.338,9.1083 50.146,8.1481 48.202,7.0438 40.58,3.227 28.986,3.227 17.44,3.227 9.77,7.0558 7.8136,8.1601 c -0.192,0.9602 -0.276,2.6289 -0.252,3.7089 0,0.096 0.012,0.192 0.012,0.3 0.084,2.736 0.396,5.725 3.1924,6.721 5.977,1.537 10.754,4.873 10.958,5.005 0.733,0.516 0.913,1.525 0.397,2.257 -0.517,0.732 -1.525,0.912 -2.257,0.396 C 19.816,26.512 15.339,23.391 9.902,22.011 9.854,21.999 9.818,21.987 9.782,21.975 4.5729,20.187 4.4169,14.629 4.3449,12.265 c 0,-0.108 0,-0.204 -0.012,-0.3 0,-0.012 0,-0.024 0,-0.036 -0.012,-0.624 -0.024,-3.8289 0.6121,-5.4373 0.12,-0.312 0.3361,-0.5761 0.6242,-0.7561 0.36,-0.2401 8.9898,-5.7372212 23.4288,-5.7372212 14.439,0 23.069,5.5091212 23.429,5.7372212 0.276,0.18 0.504,0.4441 0.624,0.7561 0.6,1.5964 0.588,4.8013 0.576,5.4253 z" /></g></g></g></g></g></g></g><g
       id="g410"><g
         clip-path="url(#clipPath416)"
         id="g412"><g
           transform="matrix(1.1733,-3.77e-7,-7.54e-7,0.605,734.4,300.6)"
           id="g418"><g
             transform="scale(1.1721,2.2719)"
             id="g420"><g
               clip-path="url(#clipPath426)"
               id="g422"><g
                 id="g428"><g
                   clip-path="url(#clipPath434)"
                   id="g430"><path
                     id="path436"
                     style="fill:#000000;fill-opacity:1;fill-rule:nonzero;stroke:none"
                     d="m 56.64,27.851 h -19.2 c -0.53,0 -0.96,-0.429 -0.96,-0.96 0,-0.53 0.43,-0.96 0.96,-0.96 h 19.2 c 1.588,0 2.88,-1.292 2.88,-2.88 V 9.6114 c 0,-1.5879 -1.292,-2.88 -2.88,-2.88 H 36.48 c -0.53,0 -0.96,-0.4298 -0.96,-0.96 V 3.289 l -3.161,3.1612 c -0.375,0.375 -0.983,0.375 -1.358,0 -0.375,-0.3749 -0.375,-0.9827 0,-1.3576 l 4.8,-4.8 c 0.184,-0.18371 0.429,-0.281156 0.679,-0.281156 0.124,0 0.249,0.02388 0.367,0.073082 C 37.206,0.23308 37.44,0.58324 37.44,0.97144 V 4.8114 h 19.2 c 2.647,0 4.8,2.1533 4.8,4.8 V 23.051 c 0,2.647 -2.153,4.8 -4.8,4.8 z" /></g></g><path
                 id="path438"
                 style="fill:#000000;fill-opacity:1;fill-rule:nonzero;stroke:none"
                 d="m 34.56,13.451 v 13.44 c 0,2.647 -2.153,4.8 -4.8,4.8 H 4.8 C 2.1533,31.691 0,29.538 0,26.891 V 13.451 C 0,10.805 2.1533,8.6514 4.8,8.6514 h 13.44 v -3.84 c 0,-0.3882 0.234,-0.7383 0.593,-0.8869 0.118,-0.0492 0.243,-0.0731 0.367,-0.0731 0.25,0 0.495,0.0976 0.679,0.2812 l 4.519,4.5188 h 5.362 c 2.647,0 4.8,2.1536 4.8,4.7996 z m -1.92,0 c 0,-1.588 -1.292,-2.88 -2.88,-2.88 H 24 c -0.255,0 -0.499,-0.101 -0.679,-0.281 L 20.16,7.129 v 2.4824 c 0,0.5306 -0.43,0.9596 -0.96,0.9596 H 4.8 c -1.588,0 -2.88,1.292 -2.88,2.88 v 13.44 c 0,1.588 1.292,2.88 2.88,2.88 h 24.96 c 1.588,0 2.88,-1.292 2.88,-2.88 z" /><path
                 id="path440"
                 style="fill:#000000;fill-opacity:1;fill-rule:nonzero;stroke:none"
                 d="m 5.76,24.971 h 2.88 c 0.5301,0 0.96,0.43 0.96,0.96 0,0.531 -0.4299,0.96 -0.96,0.96 H 5.76 c -0.5302,0 -0.96,-0.429 -0.96,-0.96 0,-0.53 0.4298,-0.96 0.96,-0.96 z" /><path
                 id="path442"
                 style="fill:#000000;fill-opacity:1;fill-rule:nonzero;stroke:none"
                 d="M 28.8,26.891 H 12.48 c -0.53,0 -0.96,-0.429 -0.96,-0.96 0,-0.53 0.43,-0.96 0.96,-0.96 H 28.8 c 0.53,0 0.96,0.43 0.96,0.96 0,0.531 -0.43,0.96 -0.96,0.96 z" /><path
                 id="path444"
                 style="fill:#000000;fill-opacity:1;fill-rule:nonzero;stroke:none"
                 d="M 28.8,23.051 H 5.76 c -0.5302,0 -0.96,-0.429 -0.96,-0.96 0,-0.53 0.4298,-0.96 0.96,-0.96 H 28.8 c 0.53,0 0.96,0.43 0.96,0.96 0,0.531 -0.43,0.96 -0.96,0.96 z" /><path
                 id="path446"
                 style="fill:#000000;fill-opacity:1;fill-rule:nonzero;stroke:none"
                 d="m 28.8,19.211 h -2.88 c -0.53,0 -0.96,-0.429 -0.96,-0.96 0,-0.53 0.43,-0.96 0.96,-0.96 h 2.88 c 0.53,0 0.96,0.43 0.96,0.96 0,0.531 -0.43,0.96 -0.96,0.96 z" /><path
                 id="path448"
                 style="fill:#000000;fill-opacity:1;fill-rule:nonzero;stroke:none"
                 d="m 5.76,17.291 h 16.32 c 0.53,0 0.96,0.43 0.96,0.96 0,0.531 -0.43,0.96 -0.96,0.96 H 5.76 c -0.5302,0 -0.96,-0.429 -0.96,-0.96 0,-0.53 0.4298,-0.96 0.96,-0.96 z" /><path
                 id="path450"
                 style="fill:#000000;fill-opacity:1;fill-rule:nonzero;stroke:none"
                 d="M 28.8,15.371 H 5.76 c -0.5302,0 -0.96,-0.429 -0.96,-0.96 0,-0.53 0.4298,-0.96 0.96,-0.96 H 28.8 c 0.53,0 0.96,0.43 0.96,0.96 0,0.531 -0.43,0.96 -0.96,0.96 z" /><path
                 id="path452"
                 style="fill:#000000;fill-opacity:1;fill-rule:nonzero;stroke:none"
                 d="m 37.44,21.131 h 2.88 c 0.53,0 0.96,0.43 0.96,0.96 0,0.531 -0.43,0.96 -0.96,0.96 h -2.88 c -0.53,0 -0.96,-0.429 -0.96,-0.96 0,-0.53 0.43,-0.96 0.96,-0.96 z" /><path
                 id="path454"
                 style="fill:#000000;fill-opacity:1;fill-rule:nonzero;stroke:none"
                 d="m 55.68,21.131 c 0.53,0 0.96,0.43 0.96,0.96 0,0.531 -0.43,0.96 -0.96,0.96 H 44.16 c -0.53,0 -0.96,-0.429 -0.96,-0.96 0,-0.53 0.43,-0.96 0.96,-0.96 z" /><path
                 id="path456"
                 style="fill:#000000;fill-opacity:1;fill-rule:nonzero;stroke:none"
                 d="m 37.44,17.291 h 18.24 c 0.53,0 0.96,0.43 0.96,0.96 0,0.531 -0.43,0.96 -0.96,0.96 H 37.44 c -0.53,0 -0.96,-0.429 -0.96,-0.96 0,-0.53 0.43,-0.96 0.96,-0.96 z" /><path
                 id="path458"
                 style="fill:#000000;fill-opacity:1;fill-rule:nonzero;stroke:none"
                 d="M 55.68,15.371 H 52.8 c -0.53,0 -0.96,-0.429 -0.96,-0.96 0,-0.53 0.43,-0.96 0.96,-0.96 h 2.88 c 0.53,0 0.96,0.43 0.96,0.96 0,0.531 -0.43,0.96 -0.96,0.96 z" /><path
                 id="path460"
                 style="fill:#000000;fill-opacity:1;fill-rule:nonzero;stroke:none"
                 d="m 37.44,13.451 h 11.52 c 0.53,0 0.96,0.43 0.96,0.96 0,0.531 -0.43,0.96 -0.96,0.96 H 37.44 c -0.53,0 -0.96,-0.429 -0.96,-0.96 0,-0.53 0.43,-0.96 0.96,-0.96 z" /><path
                 id="path462"
                 style="fill:#000000;fill-opacity:1;fill-rule:nonzero;stroke:none"
                 d="m 37.44,9.6114 h 18.24 c 0.53,0 0.96,0.4296 0.96,0.9596 0,0.531 -0.43,0.96 -0.96,0.96 H 37.44 c -0.53,0 -0.96,-0.429 -0.96,-0.96 0,-0.53 0.43,-0.9596 0.96,-0.9596 z" /></g></g></g></g></g><g
       id="g464"><g
         clip-path="url(#clipPath470)"
         id="g466"><text
           id="text474"
           style="font-variant:normal;font-weight:normal;font-size:24px;font-family:Calibri;-inkscape-font-specification:Calibri;writing-mode:lr-tb;fill:#000000;fill-opacity:1;fill-rule:nonzero;stroke:none"
           transform="matrix(1,0,0,-1,786.79,215.3)"><tspan
             id="tspan472"
             y="0"
             x="0 14.76 26.639999 37.200001 49.152 54.672001 67.32 79.919998 91.872002">Developer</tspan></text>
</g></g><g
       id="g476"><g
         clip-path="url(#clipPath482)"
         id="g478"><text
           id="text486"
           style="font-variant:normal;font-weight:normal;font-size:24px;font-family:Calibri;-inkscape-font-specification:Calibri;writing-mode:lr-tb;fill:#000000;fill-opacity:1;fill-rule:nonzero;stroke:none"
           transform="matrix(1,0,0,-1,658.8,214.82)"><tspan
             id="tspan484"
             y="0"
             x="0 12.72 24.672001 35.400002 40.919998 52.872002 69.720001 81.671997 89.760002">Reviewers</tspan></text>
</g></g><path
       id="path488"
       style="fill:#000000;fill-opacity:1;fill-rule:nonzero;stroke:none"
       d="m 554.94,131.89 h 226.87 v 70.39 h -2.28 v -69.25 l 1.14,1.14 H 554.94 Z m 230.71,64.13 -4.98,8.53 -4.97,-8.53 c -0.32,-0.55 -0.14,-1.24 0.41,-1.56 0.54,-0.32 1.24,-0.14 1.56,0.41 l 3.99,6.84 h -1.97 l 3.99,-6.84 c 0.31,-0.55 1.01,-0.73 1.55,-0.41 0.55,0.32 0.73,1.01 0.42,1.56 z" /><g
       id="g490"><g
         clip-path="url(#clipPath496)"
         id="g492"><path
           id="path498"
           style="fill:#000000;fill-opacity:1;fill-rule:nonzero;stroke:none"
           d="m 779.58,350.1 v 86.57 l 1.14,-1.14 H 526.86 l 1.14,1.14 v -124.3 h -2.28 V 437.81 H 781.86 V 350.1 Z m -247.75,-31.47 -4.97,-8.52 -4.97,8.52 c -0.32,0.55 -0.14,1.25 0.41,1.56 0.54,0.32 1.24,0.14 1.55,-0.41 l 3.99,-6.84 h -1.96 l 3.99,6.84 c 0.31,0.55 1.01,0.73 1.55,0.41 0.55,-0.31 0.73,-1.01 0.41,-1.56 z" /></g></g><path
       id="path500"
       style="fill:#000000;fill-opacity:1;fill-rule:nonzero;stroke:none"
       d="m 909.9,278.52 h 29.01 v -2.28 H 909.9 Z m 22.74,3.83 8.53,-4.97 -8.53,-4.97 c -0.54,-0.32 -1.24,-0.14 -1.55,0.41 -0.32,0.54 -0.14,1.24 0.41,1.55 l 6.84,3.99 v -1.96 l -6.84,3.99 c -0.55,0.31 -0.73,1.01 -0.41,1.55 0.31,0.55 1.01,0.73 1.55,0.41 z" /><path
       id="path502"
       style="fill:#000000;fill-opacity:1;fill-rule:nonzero;stroke:none"
       d="m 245.88,352.98 v -40.63 h -2.28 v 40.63 z m 3.83,-34.36 -4.97,-8.53 -4.97,8.53 c -0.32,0.54 -0.14,1.24 0.41,1.56 0.54,0.32 1.24,0.13 1.55,-0.41 l 3.99,-6.84 h -1.96 l 3.99,6.84 c 0.31,0.54 1.01,0.73 1.55,0.41 0.55,-0.32 0.73,-1.02 0.41,-1.56 z" /><path
       id="path504"
       style="fill:#000000;fill-opacity:1;fill-rule:nonzero;stroke:none"
       d="M 104.28,342.3 V 302.42 H 102 v 39.88 z m 3.83,-33.62 -4.97,-8.53 -4.975,8.53 c -0.317,0.55 -0.133,1.24 0.411,1.56 0.543,0.32 1.242,0.13 1.554,-0.41 l 3.99,-6.84 h -1.96 l 3.99,6.84 c 0.31,0.54 1.01,0.73 1.55,0.41 0.55,-0.32 0.73,-1.01 0.41,-1.56 z" /><path
       id="path506"
       style="fill:#ffffff;fill-opacity:1;fill-rule:evenodd;stroke:none"
       d="M 728.88,113.76 H 832.32 V 152.4 H 728.88 Z" /><g
       id="g508"><g
         clip-path="url(#clipPath514)"
         id="g510"><text
           id="text518"
           style="font-variant:normal;font-weight:normal;font-size:20.04000092px;font-family:Calibri;-inkscape-font-specification:Calibri;writing-mode:lr-tb;fill:#000000;fill-opacity:1;fill-rule:nonzero;stroke:none"
           transform="matrix(1,0,0,-1,747.89,138.26)"><tspan
             id="tspan516"
             y="0"
             x="0 9.2384396 19.218361 27.7554 38.316479 45.31044 49.91964 56.633041 65.711159">Security </tspan></text>
</g></g><g
       id="g520"><g
         clip-path="url(#clipPath526)"
         id="g522"><text
           id="text530"
           style="font-variant:normal;font-weight:normal;font-size:20.04000092px;font-family:Calibri;-inkscape-font-specification:Calibri;writing-mode:lr-tb;fill:#000000;fill-opacity:1;fill-rule:nonzero;stroke:none"
           transform="matrix(1,0,0,-1,742.13,114.26)"><tspan
             id="tspan528"
             y="0"
             x="0 8.9979601 18.97788 28.9578 39.478802 49.999802 59.598961 68.136002">Feedback</tspan></text>
</g></g><path
       id="path532"
       style="fill:#fff2cc;fill-opacity:1;fill-rule:evenodd;stroke:none"
       d="M 701.52,424.44 H 859.8 V 448.8 H 701.52 Z" /><g
       id="g534"><g
         clip-path="url(#clipPath540)"
         id="g536"><text
           id="text544"
           style="font-variant:normal;font-weight:normal;font-size:20.04000092px;font-family:Calibri;-inkscape-font-specification:Calibri;writing-mode:lr-tb;fill:#000000;fill-opacity:1;fill-rule:nonzero;stroke:none"
           transform="matrix(1,0,0,-1,708.82,429.84)"><tspan
             id="tspan542"
             y="0"
             x="0 10.68132 21.242399 37.25436 53.166119 63.146042 73.446602 80.160004">Comments</tspan></text>
</g></g><g
       id="g546"><g
         clip-path="url(#clipPath552)"
         id="g548"><g
           transform="matrix(0.3,0,-7.54e-7,0.3,816.36,425.76)"
           id="g554"><g
             transform="scale(1.2629,1.2633)"
             id="g556"><g
               clip-path="url(#clipPath562)"
               id="g558"><g
                 id="g564"><g
                   clip-path="url(#clipPath570)"
                   id="g566"><path
                     id="path572"
                     style="fill:#000000;fill-opacity:1;fill-rule:nonzero;stroke:none"
                     d="m 53.128,25.137 c 1.12,1.69 1.678,3.551 1.678,5.583 0,2.352 -0.866,4.396 -2.602,6.133 -1.735,1.735 -3.791,2.603 -6.166,2.603 H 40.01 c 1.095,2.26 1.644,4.453 1.644,6.576 0,2.672 -0.4,4.796 -1.199,6.372 -0.799,1.576 -1.964,2.735 -3.494,3.477 -1.531,0.742 -3.254,1.113 -5.173,1.113 -1.165,0 -2.192,-0.423 -3.083,-1.268 C 27.724,54.767 27.016,53.534 26.582,52.027 26.148,50.52 25.8,49.075 25.537,47.694 25.275,46.312 24.869,45.336 24.321,44.765 23.202,43.555 21.98,42.093 20.656,40.38 18.35,37.389 16.785,35.619 15.963,35.071 H 6.578 c -1.2103,0 -2.2438,-0.429 -3.1002,-1.285 -0.856,-0.856 -1.2843,-1.89 -1.2843,-3.1 V 8.7639 C 2.1935,7.5534 2.6213,6.5205 3.4778,5.664 4.3347,4.8074 5.3677,4.3789 6.578,4.3789 h 9.864 c 0.503,0 2.078,-0.4566 4.727,-1.3701 2.809,-0.9821 5.281,-1.7298 7.416,-2.24379 2.135,-0.51397 4.299,-0.7710792 6.492,-0.7710792 h 3.184 1.234 c 3.22,0 5.812,0.9197292 7.776,2.7582692 1.963,1.8385 2.934,4.3446 2.911,7.5188 1.371,1.758 2.055,3.791 2.055,6.097 0,0.502 -0.033,0.993 -0.102,1.473 0.867,1.529 1.302,3.174 1.302,4.932 0,0.822 -0.103,1.611 -0.309,2.364 z M 10.312,9.4142 C 9.8779,8.9807 9.3642,8.763 8.7704,8.763 8.1765,8.763 7.6627,8.9805 7.2287,9.4142 6.795,9.8477 6.578,10.362 6.578,10.956 c 0,0.594 0.2165,1.107 0.6507,1.541 0.4345,0.434 0.9478,0.651 1.5417,0.651 0.5938,0 1.1075,-0.217 1.5416,-0.651 0.434,-0.434 0.651,-0.947 0.651,-1.541 0,-0.594 -0.217,-1.1083 -0.651,-1.5418 z M 49.687,27.91 c -0.491,-1.051 -1.102,-1.587 -1.833,-1.61 0.343,-0.388 0.628,-0.931 0.857,-1.627 0.228,-0.697 0.341,-1.33 0.341,-1.901 0,-1.575 -0.604,-2.934 -1.814,-4.076 0.411,-0.73 0.616,-1.518 0.616,-2.363 0,-0.845 -0.199,-1.684 -0.599,-2.517 -0.399,-0.833 -0.942,-1.433 -1.627,-1.798 0.114,-0.685 0.171,-1.324 0.171,-1.918 0,-3.8134 -2.192,-5.7201 -6.577,-5.7201 h -4.144 c -2.992,0 -6.896,0.8329 -11.715,2.5004 -0.114,0.0455 -0.445,0.1659 -0.994,0.3596 -0.548,0.1938 -0.953,0.3367 -1.216,0.4278 -0.263,0.092 -0.662,0.2232 -1.199,0.3941 -0.537,0.1717 -0.97,0.2974 -1.301,0.3769 -0.331,0.0797 -0.708,0.154 -1.131,0.2226 C 17.1,8.7298 16.74,8.7639 16.444,8.7639 H 15.347 V 30.685 h 1.097 c 0.365,0 0.77,0.103 1.215,0.308 0.446,0.206 0.903,0.514 1.371,0.925 0.468,0.411 0.907,0.817 1.318,1.217 0.412,0.399 0.868,0.901 1.371,1.506 0.502,0.606 0.896,1.091 1.182,1.456 0.285,0.366 0.645,0.834 1.079,1.405 0.433,0.571 0.696,0.913 0.787,1.028 1.256,1.552 2.135,2.591 2.638,3.117 0.936,0.981 1.615,2.232 2.038,3.75 0.423,1.519 0.771,2.952 1.044,4.299 0.274,1.347 0.708,2.318 1.303,2.912 2.191,0 3.653,-0.537 4.384,-1.61 0.73,-1.073 1.096,-2.729 1.096,-4.967 0,-1.347 -0.549,-3.179 -1.645,-5.497 -1.096,-2.318 -1.644,-4.139 -1.644,-5.464 h 12.057 c 1.143,0 2.159,-0.439 3.049,-1.319 0.891,-0.879 1.337,-1.9 1.337,-3.065 0,-0.8 -0.246,-1.725 -0.737,-2.776 z" /></g></g></g></g></g></g></g><g
       id="g574"><g
         clip-path="url(#clipPath580)"
         id="g576"><g
           transform="matrix(0.3,-3.77e-7,0,-0.3,840.48,447.36)"
           id="g582"><g
             transform="scale(1.2629,1.2633)"
             id="g584"><g
               clip-path="url(#clipPath590)"
               id="g586"><g
                 id="g592"><g
                   clip-path="url(#clipPath598)"
                   id="g594"><path
                     id="path600"
                     style="fill:#000000;fill-opacity:1;fill-rule:nonzero;stroke:none"
                     d="m 53.128,25.137 c 1.12,1.69 1.678,3.551 1.678,5.583 0,2.352 -0.866,4.396 -2.602,6.133 -1.735,1.735 -3.791,2.603 -6.166,2.603 H 40.01 c 1.095,2.26 1.644,4.453 1.644,6.576 0,2.672 -0.4,4.796 -1.199,6.372 -0.799,1.576 -1.964,2.735 -3.494,3.477 -1.531,0.742 -3.254,1.113 -5.173,1.113 -1.165,0 -2.192,-0.423 -3.083,-1.268 C 27.724,54.767 27.016,53.534 26.582,52.027 26.148,50.52 25.8,49.075 25.537,47.694 25.275,46.312 24.869,45.336 24.321,44.765 23.202,43.555 21.98,42.093 20.656,40.38 18.35,37.389 16.785,35.619 15.963,35.071 H 6.578 c -1.2103,0 -2.2438,-0.429 -3.1002,-1.285 -0.856,-0.856 -1.2843,-1.89 -1.2843,-3.1 V 8.7639 C 2.1935,7.5534 2.6213,6.5205 3.4778,5.664 4.3347,4.8074 5.3677,4.3789 6.578,4.3789 h 9.864 c 0.503,0 2.078,-0.4566 4.727,-1.3701 2.809,-0.9821 5.281,-1.7298 7.416,-2.24379 2.135,-0.51397 4.299,-0.7710792 6.492,-0.7710792 h 3.184 1.234 c 3.22,0 5.812,0.9197292 7.776,2.7582692 1.963,1.8385 2.934,4.3446 2.911,7.5188 1.371,1.758 2.055,3.791 2.055,6.097 0,0.502 -0.033,0.993 -0.102,1.473 0.867,1.529 1.302,3.174 1.302,4.932 0,0.822 -0.103,1.611 -0.309,2.364 z M 10.312,9.4142 C 9.8779,8.9807 9.3642,8.763 8.7704,8.763 8.1765,8.763 7.6627,8.9805 7.2287,9.4142 6.795,9.8477 6.578,10.362 6.578,10.956 c 0,0.594 0.2165,1.107 0.6507,1.541 0.4345,0.434 0.9478,0.651 1.5417,0.651 0.5938,0 1.1075,-0.217 1.5416,-0.651 0.434,-0.434 0.651,-0.947 0.651,-1.541 0,-0.594 -0.217,-1.1083 -0.651,-1.5418 z M 49.687,27.91 c -0.491,-1.051 -1.102,-1.587 -1.833,-1.61 0.343,-0.388 0.628,-0.931 0.857,-1.627 0.228,-0.697 0.341,-1.33 0.341,-1.901 0,-1.575 -0.604,-2.934 -1.814,-4.076 0.411,-0.73 0.616,-1.518 0.616,-2.363 0,-0.845 -0.199,-1.684 -0.599,-2.517 -0.399,-0.833 -0.942,-1.433 -1.627,-1.798 0.114,-0.685 0.171,-1.324 0.171,-1.918 0,-3.8134 -2.192,-5.7201 -6.577,-5.7201 h -4.144 c -2.992,0 -6.896,0.8329 -11.715,2.5004 -0.114,0.0455 -0.445,0.1659 -0.994,0.3596 -0.548,0.1938 -0.953,0.3367 -1.216,0.4278 -0.263,0.092 -0.662,0.2232 -1.199,0.3941 -0.537,0.1717 -0.97,0.2974 -1.301,0.3769 -0.331,0.0797 -0.708,0.154 -1.131,0.2226 C 17.1,8.7298 16.74,8.7639 16.444,8.7639 H 15.347 V 30.685 h 1.097 c 0.365,0 0.77,0.103 1.215,0.308 0.446,0.206 0.903,0.514 1.371,0.925 0.468,0.411 0.907,0.817 1.318,1.217 0.412,0.399 0.868,0.901 1.371,1.506 0.502,0.606 0.896,1.091 1.182,1.456 0.285,0.366 0.645,0.834 1.079,1.405 0.433,0.571 0.696,0.913 0.787,1.028 1.256,1.552 2.135,2.591 2.638,3.117 0.936,0.981 1.615,2.232 2.038,3.75 0.423,1.519 0.771,2.952 1.044,4.299 0.274,1.347 0.708,2.318 1.303,2.912 2.191,0 3.653,-0.537 4.384,-1.61 0.73,-1.073 1.096,-2.729 1.096,-4.967 0,-1.347 -0.549,-3.179 -1.645,-5.497 -1.096,-2.318 -1.644,-4.139 -1.644,-5.464 h 12.057 c 1.143,0 2.159,-0.439 3.049,-1.319 0.891,-0.879 1.337,-1.9 1.337,-3.065 0,-0.8 -0.246,-1.725 -0.737,-2.776 z" /></g></g></g></g></g></g></g></g></svg>